#!OML:ASF G:\JayActor3\Patient Classification 1\Patient 1\Session 6\male.ASF
:FULLY-SPECIFIED
:DEGREES
597
root 10.3433 16.2819 -11.5954 -363.472 -14.4863 -1.91152
lowerback 1.13546 -2.50392 -0.911693
upperback 0.660864 -3.35078 1.79424
thorax 0.2011 -1.68518 2.3756
lowerneck 6.95877 -9.84218 -3.22441
upperneck -11.2927 -13.0144 5.60105
head -3.91758 -6.6129 2.85531
rclavicle 3.03892e-014 -1.78906e-014
rhumerus -13.409 35.7457 -89.9489
rradius 67.2258
rwrist -8.91356
rhand -53.8247 -7.64871
rfingers 7.12502
rthumb -26.2555 -35.8522
lclavicle 3.03892e-014 -1.78906e-014
lhumerus -32.8488 -10.2229 68.4674
lradius 64.6371
lwrist 62.4887
lhand -42.2342 6.2709
lfingers 7.12502
lthumb -15.1208 35.6986
rfemur -22.3383 6.95591 21.9717
rtibia 34.089
rfoot -15.5418 -19.7887
rtoes -0.824827
lfemur 14.6023 7.57449 -16.4587
ltibia 42.0635
lfoot 22.5133 -0.512847
ltoes -12.101
598
root 10.2282 16.2971 -11.4206 -363.475 -14.3912 -2.61731
lowerback 1.19515 -2.47487 -0.193042
upperback 0.684107 -3.30576 2.00165
thorax 0.16085 -1.66079 2.18912
lowerneck 6.87847 -9.93931 -3.30247
upperneck -11.1624 -13.1442 5.68428
head -3.84767 -6.67866 2.88455
rclavicle 1.71576e-014 1.59028e-015
rhumerus -13.6771 36.1397 -90.5105
rradius 66.8
rwrist -9.07341
rhand -53.8357 -7.67417
rfingers 7.12502
rthumb -26.266 -35.8761
lclavicle 1.71576e-014 1.59028e-015
lhumerus -33.4689 -10.1798 68.7673
lradius 64.4205
lwrist 62.4047
lhand -42.2578 6.2158
lfingers 7.12502
lthumb -15.1435 35.6417
rfemur -21.1722 7.04408 23.1034
rtibia 33.8231
rfoot -15.8681 -19.8358
rtoes -0.0225993
lfemur 12.1229 7.17249 -15.6341
ltibia 46.2913
lfoot 24.5457 -0.630758
ltoes -8.57854
599
root 10.1148 16.3094 -11.2478 -363.443 -14.2929 -3.33066
lowerback 1.19073 -2.44313 0.530183
upperback 0.737312 -3.25821 2.21228
thorax 0.187927 -1.63556 1.99948
lowerneck 6.80687 -10.0392 -3.37749
upperneck -11.1084 -13.2756 5.78097
head -3.8014 -6.74591 2.92078
rclavicle -8.79622e-015 -2.06736e-014
rhumerus -13.8524 36.5382 -90.9973
rradius 66.3904
rwrist -9.27241
rhand -53.8379 -7.72297
rfingers 7.12502
rthumb -26.2682 -35.9246
lclavicle -8.79622e-015 -2.06736e-014
lhumerus -34.0078 -10.0959 69.0553
lradius 64.2014
lwrist 62.3247
lhand -42.2746 6.1207
lfingers 7.12502
lthumb -15.1597 35.5454
rfemur -20.046 7.06978 24.24
rtibia 33.5416
rfoot -16.2807 -19.8282
rtoes 0.727159
lfemur 9.63321 6.736 -14.8555
ltibia 50.2291
lfoot 25.6648 -1.11946
ltoes -5.95797
600
root 10.0033 16.3187 -11.0764 -363.403 -14.1775 -4.01768
lowerback 1.14505 -2.41167 1.22456
upperback 0.814503 -3.21388 2.41648
thorax 0.264947 -1.61164 1.81698
lowerneck 6.73388 -10.1403 -3.45351
upperneck -11.0908 -13.4076 5.88451
head -3.7652 -6.81376 2.96037
rclavicle -2.74447e-014 3.57812e-015
rhumerus -13.9589 36.9379 -91.4231
rradius 65.9916
rwrist -9.4785
rhand -53.8347 -7.78954
rfingers 7.12502
rthumb -26.265 -35.9916
lclavicle -2.74447e-014 3.57812e-015
lhumerus -34.4789 -9.97171 69.3346
lradius 63.9675
lwrist 62.1954
lhand -42.3037 5.95143
lfingers 7.12502
lthumb -15.1878 35.374
rfemur -18.9453 7.04098 25.3403
rtibia 33.2584
rfoot -16.7674 -19.7949
rtoes 1.37204
lfemur 7.17208 6.25931 -14.1598
ltibia 53.8503
lfoot 25.7306 -1.8256
ltoes -4.3406
601
root 9.89349 16.3254 -10.9064 -363.36 -14.0463 -4.67554
lowerback 1.09163 -2.37966 1.88659
upperback 0.895536 -3.17123 2.61616
thorax 0.352696 -1.5879 1.64787
lowerneck 6.66123 -10.2425 -3.54044
upperneck -11.0773 -13.5419 5.99113
head -3.72895 -6.88249 3.00239
rclavicle -3.38804e-014 2.3059e-014
rhumerus -14.0351 37.3287 -91.8057
rradius 65.598
rwrist -9.66475
rhand -53.8308 -7.87808
rfingers 7.12502
rthumb -26.2614 -36.0807
lclavicle -3.38804e-014 2.3059e-014
lhumerus -34.9093 -9.81642 69.6145
lradius 63.7097
lwrist 61.9838
lhand -42.3475 5.70021
lfingers 7.12502
lthumb -15.2299 35.1196
rfemur -17.8682 6.9679 26.3996
rtibia 32.9802
rfoot -17.3137 -19.7608
rtoes 1.89588
lfemur 4.7525 5.74827 -13.5469
ltibia 57.1421
lfoot 24.8187 -2.61513
ltoes -3.65831
602
root 9.78601 16.33 -10.7382 -363.318 -13.9011 -5.31067
lowerback 1.069 -2.34874 2.5279
upperback 0.961131 -3.12996 2.81094
thorax 0.409124 -1.56434 1.4876
lowerneck 6.64545 -10.3407 -3.6443
upperneck -10.7141 -13.7107 5.88866
head -4.01034 -6.93555 3.30327
rclavicle 1.02001e-014 -9.93923e-015
rhumerus -14.1169 37.7044 -92.1726
rradius 65.2031
rwrist -9.807
rhand -53.8156 -7.95762
rfingers 7.12502
rthumb -26.2468 -36.1624
lclavicle 1.02001e-014 -9.93923e-015
lhumerus -35.3334 -9.66994 69.8978
lradius 63.4357
lwrist 61.6903
lhand -42.4342 5.39997
lfingers 7.12502
lthumb -15.3135 34.813
rfemur -16.8179 6.83752 27.4206
rtibia 32.7138
rfoot -17.8912 -19.7087
rtoes 2.29688
lfemur 2.37495 5.20035 -13.0087
ltibia 60.0971
lfoot 23.1601 -3.32554
ltoes -3.63522
